<?xml version="1.0" encoding="UTF-8"?>
<!DOCTYPE svg PUBLIC "-//W3C//DTD SVG 1.1//EN" "http://www.w3.org/Graphics/SVG/1.1/DTD/svg11.dtd">
<!-- Creator: CorelDRAW 2021.5 -->
<svg xmlns="http://www.w3.org/2000/svg" xml:space="preserve" width="78.709mm" height="35.8698mm" version="1.1" style="shape-rendering:geometricPrecision; text-rendering:geometricPrecision; image-rendering:optimizeQuality; fill-rule:evenodd; clip-rule:evenodd"
viewBox="0 0 7870.9 3586.98"
 xmlns:xlink="http://www.w3.org/1999/xlink"
 xmlns:xodm="http://www.corel.com/coreldraw/odm/2003">
 <defs>
  <style type="text/css">
   <![CDATA[
    .fil0 {fill:black}
   ]]>
  </style>
 </defs>
 <g id="Layer_x0020_1">
  <metadata id="CorelCorpID_0Corel-Layer"/>
  <g id="_2685118010080">
   <polygon class="fil0" points="141.07,319.64 141.07,643.89 1181.56,653.57 -0,3250.01 1664.2,3249.68 1664.2,2919.52 521.34,2919.52 1737.91,293.56 141.07,293.56 "/>
   <path class="fil0" d="M1846.95 3586.98l3795.42 0 -1896.6 -3586.98 -1898.82 3586.98zm1193.33 -1713.82l699.78 -1289.93 695.55 1281.5 -678.25 1284.59 -717.08 -1276.16zm-117.86 247.72l609.34 1183.1 -1215.54 0 606.2 -1183.1zm1657.61 6.59l-624.5 1165.36 1243.42 0 -618.92 -1165.36z"/>
   <polygon class="fil0" points="5764.3,293.57 6156.98,293.57 6156.98,2897.09 7284.97,2897.09 7284.97,3249.19 5757.77,3249.19 "/>
   <polygon class="fil0" points="7493.16,293.97 7870.9,293.97 7870.9,3248.8 7479.75,3248.8 "/>
  </g>
 </g>
</svg>
